# xmcd CD database file
#
# Track frame offsets:
#	187
#	27002
#	41662
#	71167
#	94832
#	125590
#	150670
#
# Disc length: 2414 seconds
#
# Revision: 0
# Processed by: cddbd v1.5.2PL0 Copyright (c) Steve Scherf et al.
# Submitted via: CDex 1.51
#
DISCID=58096c07
DTITLE=Elmo Hope Sextet and Trio - HOMECOMING!
DYEAR=1961
DGENRE=Jazz
TTITLE0=Moe, Jr.
TTITLE1=La Berthe
TTITLE2=Eyes So Beautiful As Yours
TTITLE3=Homecoming
TTITLE4=One Mo' Blues
TTITLE5=A Kiss for My Love
TTITLE6=Imagination
EXTD=YEAR: 1961
EXTT0=
EXTT1=
EXTT2=
EXTT3=
EXTT4=
EXTT5=
EXTT6=
PLAYORDER=
